<svg width="25" height="26" viewBox="0 0 25 26" fill="none" xmlns="http://www.w3.org/2000/svg">
<rect x="16.7506" y="18.761" width="14" height="11" transform="rotate(-138.513 16.7506 18.761)" fill="#636363" stroke="#333333"/>
<path d="M6.20933 20.1146C4.42115 18.2385 3.74098 16.6618 3.8437 15.0282C3.94298 13.451 4.7744 11.7226 6.30703 9.52424L16.7419 18.7519C14.7581 20.846 13.0867 21.8563 11.5099 22.0605C9.86502 22.2735 8.19315 21.6248 6.20933 20.1146Z" fill="#D9D9D9" stroke="#333333"/>
<path d="M13.6727 16.3247C14.6008 17.1969 8.8561 20.4153 7.58816 20.1479C6.32021 19.8805 9.94233 22.1406 12.0308 21.5172C13.3089 21.0966 14.2399 20.384 16.3286 18.4384L13.6727 16.3247Z" fill="#C3C3C3"/>
<path d="M6.20933 20.1146C4.42115 18.2385 3.74098 16.6618 3.8437 15.0282C3.94298 13.451 4.7744 11.7226 6.30703 9.52424L16.7419 18.7519C14.7581 20.846 13.0867 21.8563 11.5099 22.0605C9.86502 22.2735 8.19315 21.6248 6.20933 20.1146Z" stroke="#333333"/>
<rect x="14.1514" y="16.2988" width="10.8011" height="3.54916" transform="rotate(-47.2472 14.1514 16.2988)" fill="#525252"/>
<rect x="16.7506" y="18.761" width="14" height="11" transform="rotate(-138.513 16.7506 18.761)" stroke="#333333"/>
</svg>
